
<svg xmlns="http://www.w3.org/2000/svg" xmlns:xlink="http://www.w3.org/1999/xlink" viewBox="0 0 800 346" width="100">

<path d="M 187.000,212.469 C 193.500,200.969 193.205,200.793 200.000,189.469" stroke-width="4.910" stroke="black" fill="none" stroke-linecap="round"></path><path d="M 200.000,189.469 C 208.205,175.793 208.671,176.073 217.000,162.469" stroke-width="2.306" stroke="black" fill="none" stroke-linecap="round"></path><path d="M 217.000,162.469 C 223.671,151.573 224.296,151.878 230.000,140.469" stroke-width="2.264" stroke="black" fill="none" stroke-linecap="round"></path><path d="M 230.000,140.469 C 238.296,123.878 238.049,123.681 245.000,106.469" stroke-width="1.946" stroke="black" fill="none" stroke-linecap="round"></path><path d="M 245.000,106.469 C 248.549,97.681 248.926,97.656 251.000,88.469" stroke-width="2.346" stroke="black" fill="none" stroke-linecap="round"></path><path d="M 251.000,88.469 C 252.426,82.156 251.690,81.976 252.000,75.469" stroke-width="2.876" stroke="black" fill="none" stroke-linecap="round"></path><path d="M 252.000,75.469 C 252.190,71.476 252.923,71.161 252.000,67.469" stroke-width="3.520" stroke="black" fill="none" stroke-linecap="round"></path><path d="M 252.000,67.469 C 251.423,65.161 250.926,64.913 249.000,63.469" stroke-width="4.023" stroke="black" fill="none" stroke-linecap="round"></path><path d="M 249.000,63.469 C 246.926,61.913 246.601,61.942 244.000,61.469" stroke-width="4.151" stroke="black" fill="none" stroke-linecap="round"></path><path d="M 244.000,61.469 C 241.101,60.942 240.937,61.017 238.000,61.469" stroke-width="4.156" stroke="black" fill="none" stroke-linecap="round"></path><path d="M 238.000,61.469 C 234.437,62.017 233.614,61.181 231.000,63.469" stroke-width="3.949" stroke="black" fill="none" stroke-linecap="round"></path><path d="M 231.000,63.469 C 225.614,68.181 225.497,68.912 222.000,75.469" stroke-width="3.288" stroke="black" fill="none" stroke-linecap="round"></path><path d="M 222.000,75.469 C 217.497,83.912 216.815,84.063 215.000,93.469" stroke-width="2.801" stroke="black" fill="none" stroke-linecap="round"></path><path d="M 215.000,93.469 C 211.315,112.563 211.879,112.911 211.000,132.469" stroke-width="1.928" stroke="black" fill="none" stroke-linecap="round"></path><path d="M 211.000,132.469 C 209.879,157.411 210.565,157.475 211.000,182.469" stroke-width="1.495" stroke="black" fill="none" stroke-linecap="round"></path><path d="M 211.000,182.469 C 211.565,214.975 211.537,214.991 213.000,247.469" stroke-width="1.248" stroke="black" fill="none" stroke-linecap="round"></path><path d="M 213.000,247.469 C 214.037,270.491 215.051,270.445 216.000,293.469" stroke-width="1.382" stroke="black" fill="none" stroke-linecap="round"></path><path d="M 216.000,293.469 C 217.051,318.945 220.328,325.331 217.000,344.469" stroke-width="1.355" stroke="black" fill="none" stroke-linecap="round"></path><path d="M 217.000,344.469 C 216.328,348.331 208.703,343.829 208.000,339.469" stroke-width="2.803" stroke="black" fill="none" stroke-linecap="round"></path><path d="M 208.000,339.469 C 206.203,328.329 208.965,326.246 212.000,313.469" stroke-width="2.224" stroke="black" fill="none" stroke-linecap="round"></path><path d="M 212.000,313.469 C 218.465,286.246 219.031,286.328 227.000,259.469" stroke-width="1.438" stroke="black" fill="none" stroke-linecap="round"></path><path d="M 227.000,259.469 C 232.531,240.828 233.925,241.224 239.000,222.469" stroke-width="1.661" stroke="black" fill="none" stroke-linecap="round"></path><path d="M 239.000,222.469 C 245.425,198.724 245.603,198.652 250.000,174.469" stroke-width="1.453" stroke="black" fill="none" stroke-linecap="round"></path><path d="M 250.000,174.469 C 252.603,160.152 251.924,159.999 253.000,145.469" stroke-width="1.837" stroke="black" fill="none" stroke-linecap="round"></path><path d="M 253.000,145.469 C 253.924,132.999 254.336,132.916 254.000,120.469" stroke-width="2.073" stroke="black" fill="none" stroke-linecap="round"></path><path d="M 254.000,120.469 C 253.836,114.416 255.651,112.335 252.000,108.469" stroke-width="2.831" stroke="black" fill="none" stroke-linecap="round"></path><path d="M 252.000,108.469 C 247.151,103.335 244.207,101.409 237.000,102.469" stroke-width="2.808" stroke="black" fill="none" stroke-linecap="round"></path><path d="M 237.000,102.469 C 227.207,103.909 226.198,106.409 218.000,113.469" stroke-width="2.551" stroke="black" fill="none" stroke-linecap="round"></path><path d="M 218.000,113.469 C 208.198,121.909 207.883,122.414 201.000,133.469" stroke-width="2.303" stroke="black" fill="none" stroke-linecap="round"></path><path d="M 201.000,133.469 C 191.383,148.914 191.524,149.405 185.000,166.469" stroke-width="1.852" stroke="black" fill="none" stroke-linecap="round"></path><path d="M 185.000,166.469 C 178.524,183.405 178.285,183.729 175.000,201.469" stroke-width="1.756" stroke="black" fill="none" stroke-linecap="round"></path><path d="M 175.000,201.469 C 173.285,210.729 173.801,211.116 175.000,220.469" stroke-width="2.344" stroke="black" fill="none" stroke-linecap="round"></path><path d="M 175.000,220.469 C 176.301,230.616 174.394,233.180 180.000,240.469" stroke-width="2.423" stroke="black" fill="none" stroke-linecap="round"></path><path d="M 180.000,240.469 C 184.394,246.180 187.188,245.090 195.000,246.469" stroke-width="2.778" stroke="black" fill="none" stroke-linecap="round"></path><path d="M 195.000,246.469 C 204.188,248.090 205.033,248.817 214.000,246.469" stroke-width="2.630" stroke="black" fill="none" stroke-linecap="round"></path><path d="M 214.000,246.469 C 226.033,243.317 226.770,242.807 237.000,235.469" stroke-width="2.352" stroke="black" fill="none" stroke-linecap="round"></path><path d="M 237.000,235.469 C 249.770,226.307 250.144,225.789 260.000,213.469" stroke-width="2.002" stroke="black" fill="none" stroke-linecap="round"></path><path d="M 260.000,213.469 C 270.144,200.789 271.054,200.464 277.000,185.469" stroke-width="1.997" stroke="black" fill="none" stroke-linecap="round"></path><path d="M 277.000,185.469 C 282.554,171.464 281.378,170.605 283.000,155.469" stroke-width="1.951" stroke="black" fill="none" stroke-linecap="round"></path><path d="M 283.000,155.469 C 284.378,142.605 285.281,141.852 283.000,129.469" stroke-width="2.134" stroke="black" fill="none" stroke-linecap="round"></path><path d="M 283.000,129.469 C 281.781,122.852 280.804,122.273 276.000,117.469" stroke-width="2.680" stroke="black" fill="none" stroke-linecap="round"></path><path d="M 276.000,117.469 C 268.804,110.273 268.601,106.813 259.000,105.469" stroke-width="2.511" stroke="black" fill="none" stroke-linecap="round"></path><path d="M 259.000,105.469 C 243.601,103.313 240.319,103.430 226.000,110.469" stroke-width="2.048" stroke="black" fill="none" stroke-linecap="round"></path><path d="M 226.000,110.469 C 210.819,117.930 211.286,121.104 200.000,134.469" stroke-width="1.940" stroke="black" fill="none" stroke-linecap="round"></path><path d="M 200.000,134.469 C 192.286,143.604 192.960,144.504 188.000,155.469" stroke-width="2.084" stroke="black" fill="none" stroke-linecap="round"></path><path d="M 188.000,155.469 C 183.460,165.504 183.086,165.739 181.000,176.469" stroke-width="2.323" stroke="black" fill="none" stroke-linecap="round"></path><path d="M 181.000,176.469 C 179.586,183.739 178.443,185.219 181.000,191.469" stroke-width="2.701" stroke="black" fill="none" stroke-linecap="round"></path><path d="M 181.000,191.469 C 182.943,196.219 184.770,196.919 190.000,198.469" stroke-width="3.135" stroke="black" fill="none" stroke-linecap="round"></path><path d="M 190.000,198.469 C 198.270,200.919 199.403,201.379 208.000,199.469" stroke-width="2.840" stroke="black" fill="none" stroke-linecap="round"></path><path d="M 208.000,199.469 C 221.903,196.379 222.735,196.016 235.000,188.469" stroke-width="2.189" stroke="black" fill="none" stroke-linecap="round"></path><path d="M 235.000,188.469 C 248.735,180.016 248.355,178.815 260.000,167.469" stroke-width="1.998" stroke="black" fill="none" stroke-linecap="round"></path><path d="M 260.000,167.469 C 267.855,159.815 267.244,159.154 274.000,150.469" stroke-width="2.295" stroke="black" fill="none" stroke-linecap="round"></path><path d="M 274.000,150.469 C 277.744,145.654 277.480,145.455 281.000,140.469" stroke-width="2.856" stroke="black" fill="none" stroke-linecap="round"></path><path d="M 281.000,140.469 C 283.480,136.955 287.338,133.469 286.000,133.469" stroke-width="3.419" stroke="black" fill="none" stroke-linecap="round"></path><path d="M 286.000,133.469 C 283.838,133.469 278.914,135.778 274.000,140.469" stroke-width="4.053" stroke="black" fill="none" stroke-linecap="round"></path><path d="M 274.000,140.469 C 267.914,146.278 268.766,147.319 264.000,154.469" stroke-width="3.150" stroke="black" fill="none" stroke-linecap="round"></path><path d="M 264.000,154.469 C 261.766,157.819 259.250,158.719 260.000,161.469" stroke-width="3.541" stroke="black" fill="none" stroke-linecap="round"></path><path d="M 260.000,161.469 C 260.750,164.219 263.491,166.232 267.000,165.469" stroke-width="4.174" stroke="black" fill="none" stroke-linecap="round"></path><path d="M 267.000,165.469 C 274.991,163.732 275.616,161.816 283.000,156.469" stroke-width="3.094" stroke="black" fill="none" stroke-linecap="round"></path><path d="M 283.000,156.469 C 290.116,151.316 289.609,150.582 296.000,144.469" stroke-width="2.716" stroke="black" fill="none" stroke-linecap="round"></path><path d="M 296.000,144.469 C 301.109,139.582 301.000,139.469 306.000,134.469" stroke-width="2.955" stroke="black" fill="none" stroke-linecap="round"></path><path d="M 306.000,134.469 C 309.500,130.969 309.034,130.215 313.000,127.469" stroke-width="3.301" stroke="black" fill="none" stroke-linecap="round"></path><path d="M 313.000,127.469 C 315.534,125.715 315.942,126.233 319.000,125.469" stroke-width="4.480" stroke="black" fill="none" stroke-linecap="round"></path><path d="M 319.000,125.469 C 321.942,124.733 322.058,125.204 325.000,124.469" stroke-width="4.238" stroke="black" fill="none" stroke-linecap="round"></path><path d="M 325.000,124.469 C 328.058,123.704 327.928,123.027 331.000,122.469" stroke-width="4.565" stroke="black" fill="none" stroke-linecap="round"></path><path d="M 331.000,122.469 C 333.428,122.027 333.643,123.142 336.000,122.469" stroke-width="5.017" stroke="black" fill="none" stroke-linecap="round"></path><path d="M 336.000,122.469 C 340.643,121.142 340.603,120.667 345.000,118.469" stroke-width="4.517" stroke="black" fill="none" stroke-linecap="round"></path><path d="M 345.000,118.469 C 347.603,117.167 347.401,116.768 350.000,115.469" stroke-width="4.282" stroke="black" fill="none" stroke-linecap="round"></path><path d="M 350.000,115.469 C 352.401,114.268 352.515,114.504 355.000,113.469" stroke-width="4.655" stroke="black" fill="none" stroke-linecap="round"></path><path d="M 355.000,113.469 C 358.515,112.004 358.598,112.170 362.000,110.469" stroke-width="4.989" stroke="black" fill="none" stroke-linecap="round"></path><path d="M 362.000,110.469 C 366.598,108.170 366.813,108.435 371.000,105.469" stroke-width="3.847" stroke="black" fill="none" stroke-linecap="round"></path><path d="M 371.000,105.469 C 378.813,99.935 378.389,99.323 386.000,93.469" stroke-width="2.983" stroke="black" fill="none" stroke-linecap="round"></path><path d="M 386.000,93.469 C 391.389,89.323 391.391,89.307 397.000,85.469" stroke-width="3.023" stroke="black" fill="none" stroke-linecap="round"></path><path d="M 397.000,85.469 C 400.891,82.807 401.109,83.131 405.000,80.469" stroke-width="3.416" stroke="black" fill="none" stroke-linecap="round"></path><path d="M 405.000,80.469 C 410.609,76.631 410.140,75.817 416.000,72.469" stroke-width="3.144" stroke="black" fill="none" stroke-linecap="round"></path></svg>
